<?xml version="1.0" standalone="no"?>
<!DOCTYPE svg PUBLIC "-//W3C//DTD SVG 20010904//EN"
 "http://www.w3.org/TR/2001/REC-SVG-20010904/DTD/svg10.dtd">
<svg version="1.0" xmlns="http://www.w3.org/2000/svg"
 width="1600.000000pt" height="1600.000000pt" viewBox="0 0 1600.000000 1600.000000"
 preserveAspectRatio="xMidYMid meet">
<metadata>
Created by potrace 1.14, written by Peter Selinger 2001-2017
</metadata>
<g transform="translate(0.000000,1600.000000) scale(0.100000,-0.100000)"
fill="#000000" stroke="none">
<path d="M3899 15806 c-2 -2 -40 -7 -84 -11 -117 -9 -123 -10 -131 -18 -4 -4
-18 -7 -31 -7 -13 0 -23 -5 -23 -12 0 -6 -3 -8 -7 -5 -3 4 -12 2 -20 -4 -7 -6
-13 -8 -13 -4 0 5 -9 0 -20 -10 -11 -10 -20 -15 -20 -10 0 4 -15 -4 -34 -19
-19 -14 -40 -26 -46 -26 -6 0 -8 -4 -5 -10 3 -5 1 -10 -5 -10 -13 0 -130 -115
-130 -128 0 -4 -8 -15 -17 -23 -10 -9 -25 -26 -33 -39 -8 -12 -23 -33 -32 -45
-10 -13 -18 -28 -18 -34 0 -6 -4 -11 -10 -11 -5 0 -12 -11 -16 -25 -3 -14 -9
-25 -13 -25 -7 0 -26 -34 -30 -55 -1 -5 -8 -17 -15 -25 -16 -19 -59 -111 -59
-127 0 -7 -4 -13 -8 -13 -4 0 -10 -13 -14 -30 -4 -16 -11 -30 -16 -30 -6 0 -8
-4 -5 -8 3 -5 -2 -21 -9 -36 -8 -16 -12 -32 -9 -37 3 -5 0 -9 -5 -9 -6 0 -11
-9 -11 -19 0 -11 -9 -40 -20 -65 -10 -25 -17 -46 -15 -46 2 0 -2 -18 -10 -41
-8 -23 -13 -45 -10 -49 3 -5 0 -10 -6 -12 -7 -2 -13 -17 -15 -33 -4 -33 -8
-53 -17 -75 -4 -8 -8 -26 -10 -40 -2 -14 -7 -32 -10 -40 -3 -8 -8 -28 -11 -45
-3 -16 -10 -50 -16 -75 -12 -54 -17 -74 -35 -165 -19 -93 -26 -133 -30 -175
-2 -19 -4 -35 -5 -35 -4 0 -11 -43 -12 -72 -1 -18 -5 -33 -8 -33 -3 0 -6 -15
-7 -33 -4 -78 -7 -98 -15 -103 -4 -3 -4 -13 2 -23 5 -10 6 -22 2 -25 -4 -4 -7
-19 -8 -34 -3 -46 -13 -147 -15 -147 -1 0 -2 -36 -4 -81 -1 -44 -4 -85 -7 -90
-3 -5 -4 -34 -3 -64 1 -30 -2 -63 -7 -72 -6 -13 -5 -18 4 -18 8 0 9 -3 3 -8
-12 -8 -13 -61 -2 -79 5 -7 4 -13 0 -13 -10 0 -10 -41 0 -57 4 -5 3 -13 0 -17
-12 -12 -11 -56 1 -56 7 0 8 -3 1 -8 -13 -9 -15 -82 -3 -82 5 0 6 -6 2 -12
-12 -19 -12 -48 -1 -48 6 0 6 -5 0 -12 -8 -11 -10 -33 -3 -40 1 -2 3 -37 5
-78 5 -114 14 -260 20 -305 3 -22 7 -69 9 -105 2 -36 6 -72 9 -80 3 -8 8 -40
11 -70 3 -30 8 -73 11 -95 3 -22 7 -54 9 -71 1 -17 5 -35 8 -40 3 -5 4 -17 3
-26 -2 -10 0 -18 3 -18 4 0 8 -17 8 -38 2 -37 31 -204 42 -232 3 -8 4 -19 3
-24 -1 -5 1 -16 5 -25 4 -9 8 -25 9 -36 2 -11 6 -33 9 -50 4 -16 8 -39 10 -50
2 -11 4 -20 6 -20 1 0 4 -13 6 -30 3 -16 7 -37 11 -45 3 -8 7 -24 9 -35 2 -11
8 -44 14 -74 6 -30 9 -62 7 -73 -3 -10 -1 -18 5 -18 5 0 7 -4 4 -9 -5 -8 -15
-67 -19 -113 -1 -10 -6 -18 -11 -18 -5 0 -7 -3 -3 -6 3 -3 -1 -25 -10 -47 -8
-23 -16 -50 -18 -60 -2 -9 -7 -22 -10 -27 -3 -5 -8 -18 -10 -27 -3 -10 -14
-52 -25 -93 -12 -41 -23 -82 -25 -90 -2 -8 -4 -15 -5 -15 -2 0 -10 -36 -12
-57 -1 -10 -6 -18 -9 -18 -4 0 -6 -11 -3 -25 2 -14 1 -25 -4 -25 -4 0 -8 -8
-9 -17 -1 -29 -14 -97 -20 -107 -3 -5 -8 -23 -10 -40 -7 -52 -12 -81 -13 -81
-1 0 -4 -16 -6 -35 -4 -37 -11 -75 -14 -75 -1 0 -4 -13 -6 -30 -2 -16 -6 -43
-9 -60 -8 -45 -17 -134 -19 -187 0 -25 -5 -43 -10 -40 -5 3 -7 -2 -3 -11 3 -9
2 -19 -4 -23 -7 -4 -6 -10 0 -18 6 -7 8 -16 4 -19 -3 -4 -7 -19 -9 -34 -1 -16
-5 -68 -10 -118 -4 -49 -8 -125 -8 -167 0 -43 -3 -78 -6 -78 -3 0 -6 -9 -6
-20 0 -11 4 -20 9 -20 5 0 5 -6 -2 -13 -8 -10 -7 -17 1 -25 7 -7 8 -12 3 -12
-6 0 -10 -20 -10 -45 0 -25 2 -45 5 -45 3 0 6 -35 6 -78 2 -135 8 -202 17
-202 5 0 5 -6 -1 -13 -6 -7 -7 -18 -3 -26 5 -7 6 -22 4 -32 -3 -11 0 -19 6
-19 9 0 9 -5 1 -20 -6 -11 -7 -20 -2 -20 5 0 8 -10 7 -22 -1 -13 3 -29 9 -37
9 -12 8 -13 -2 -7 -11 7 -12 4 -4 -11 6 -10 13 -43 16 -74 4 -30 10 -69 15
-86 5 -17 7 -34 3 -37 -3 -3 0 -6 5 -6 6 0 10 -8 8 -17 -1 -10 1 -27 6 -39 4
-11 9 -34 12 -50 4 -23 26 -108 53 -202 2 -7 4 -16 5 -20 0 -4 5 -13 11 -20 6
-6 7 -12 4 -12 -4 0 -2 -9 4 -21 6 -11 13 -28 15 -37 2 -9 17 -53 35 -97 42
-105 51 -129 52 -135 0 -3 7 -14 14 -25 8 -11 14 -27 14 -36 0 -10 5 -19 10
-21 6 -2 12 -14 15 -27 2 -13 11 -31 20 -41 8 -9 15 -24 15 -33 0 -9 3 -17 8
-17 4 0 18 -25 32 -55 14 -30 28 -55 33 -55 4 0 7 -7 7 -15 0 -8 5 -15 11 -15
5 0 7 -4 4 -10 -3 -5 -1 -10 4 -10 6 0 11 -5 11 -11 0 -5 24 -47 54 -92 30
-45 54 -84 53 -87 -1 -3 10 -17 23 -31 14 -14 32 -36 40 -48 14 -22 52 -71 75
-97 5 -7 21 -26 35 -44 75 -95 252 -278 370 -380 41 -36 85 -75 97 -87 12 -12
32 -24 43 -28 11 -3 20 -10 20 -15 0 -4 24 -25 53 -46 28 -21 54 -42 55 -46 2
-5 10 -8 18 -8 8 0 14 -4 14 -10 0 -5 6 -10 14 -10 8 0 17 -7 20 -16 3 -8 10
-13 15 -10 5 4 11 2 13 -3 4 -11 173 -121 186 -121 6 0 12 -4 14 -8 2 -5 24
-20 49 -34 85 -47 94 -53 100 -61 3 -4 16 -9 27 -10 12 -1 22 -7 22 -15 0 -7
4 -11 9 -8 9 6 71 -49 71 -63 0 -4 9 -19 20 -33 21 -27 31 -63 33 -120 1 -21
6 -38 10 -38 5 0 5 -6 0 -12 -4 -7 -9 -24 -11 -37 -5 -41 -39 -105 -76 -147
-19 -21 -32 -42 -30 -46 3 -5 1 -8 -4 -8 -5 0 -26 -25 -46 -55 -20 -30 -33
-55 -29 -55 4 0 0 -6 -9 -13 -9 -6 -26 -31 -38 -55 -12 -23 -26 -45 -31 -48
-5 -3 -9 -13 -9 -23 0 -10 -7 -24 -15 -31 -8 -7 -15 -21 -15 -31 0 -11 -4 -19
-10 -19 -5 0 -10 -5 -10 -11 0 -5 -11 -35 -25 -64 -13 -30 -27 -66 -31 -80 -3
-14 -10 -28 -15 -31 -5 -3 -7 -10 -3 -15 3 -5 1 -15 -5 -22 -5 -7 -12 -24 -15
-37 -3 -14 -13 -50 -21 -80 -8 -30 -16 -65 -17 -77 -1 -13 -5 -23 -9 -23 -3 0
-6 -16 -7 -35 -1 -20 -4 -40 -8 -46 -3 -5 -8 -31 -10 -57 -2 -26 -7 -65 -10
-87 -4 -34 -7 -67 -16 -195 -2 -31 -18 -40 -44 -23 -13 8 -24 12 -24 8 0 -4
-14 5 -31 19 -17 14 -41 29 -55 32 -13 3 -24 9 -24 14 0 4 -16 15 -35 26 -19
10 -35 22 -35 26 0 5 -6 8 -13 8 -7 0 -24 11 -39 25 -15 14 -31 25 -37 25 -5
0 -11 3 -13 8 -1 4 -29 27 -60 51 -32 24 -58 47 -58 52 0 5 -5 9 -10 9 -6 0
-24 12 -39 27 -83 80 -159 158 -186 190 -16 20 -38 44 -47 54 -9 9 -14 20 -10
23 3 3 0 6 -5 6 -6 0 -28 24 -49 53 -20 28 -44 58 -53 65 -8 6 -12 12 -8 12 5
0 3 6 -3 13 -17 20 -55 79 -80 127 -13 25 -30 52 -38 62 -7 9 -14 22 -16 30
-3 24 -31 78 -39 78 -5 0 -5 5 -2 10 3 6 2 10 -3 10 -6 0 -13 12 -16 26 -4 14
-16 46 -27 69 -11 24 -22 50 -23 57 -2 7 -6 21 -10 30 -4 9 -9 23 -10 31 -1 8
-7 21 -14 29 -6 8 -9 18 -6 21 3 3 2 12 -2 19 -5 7 -10 18 -11 23 -1 6 -4 17
-6 25 -2 8 -7 29 -11 45 -4 17 -12 41 -16 55 -5 14 -11 39 -14 55 -3 17 -7 41
-10 55 -12 53 -16 77 -22 125 -3 28 -10 55 -14 60 -5 6 -9 15 -11 20 -5 21
-28 70 -29 60 0 -7 -3 -7 -8 0 -17 24 -62 38 -124 40 -38 1 -68 -2 -68 -7 0
-4 -6 -8 -13 -8 -13 0 -102 -80 -89 -80 4 0 3 -4 -3 -8 -15 -11 -55 -70 -55
-82 0 -5 -5 -10 -11 -10 -5 0 -8 -4 -5 -9 3 -5 -1 -12 -9 -15 -8 -3 -14 -9
-13 -13 1 -4 -9 -26 -23 -48 -13 -22 -23 -43 -21 -47 1 -5 -2 -8 -6 -8 -10 0
-82 -141 -82 -159 0 -6 -4 -11 -9 -11 -5 0 -12 -10 -16 -22 -4 -13 -8 -25 -9
-28 -1 -3 -12 -27 -25 -55 -12 -27 -25 -62 -28 -78 -3 -15 -10 -30 -14 -33 -5
-3 -7 -10 -4 -15 4 -5 1 -9 -5 -9 -7 0 -10 -7 -6 -15 3 -8 0 -15 -6 -15 -6 0
-8 -3 -5 -7 4 -3 2 -12 -4 -20 -6 -7 -9 -13 -5 -13 3 0 1 -12 -5 -27 -6 -16
-12 -35 -14 -43 -2 -8 -13 -51 -24 -94 -11 -44 -18 -83 -15 -87 2 -4 0 -10 -5
-14 -5 -3 -8 -14 -6 -25 2 -11 0 -20 -4 -20 -4 0 -8 -12 -8 -27 0 -16 -4 -41
-7 -58 -8 -34 -11 -63 -21 -220 -9 -143 -12 -255 -7 -259 2 -3 5 -49 8 -103 5
-129 8 -156 17 -170 5 -8 4 -13 -3 -13 -7 0 -8 -6 -2 -17 8 -18 14 -59 16
-115 1 -16 4 -28 8 -28 4 0 5 -7 2 -15 -4 -8 -2 -15 4 -15 5 0 8 -11 7 -25 -2
-14 0 -27 4 -29 8 -5 14 -76 7 -76 -5 0 -69 41 -91 57 -5 5 -30 21 -53 36
l-44 29 5 -29 c7 -34 16 -95 23 -148 2 -22 5 -188 5 -370 0 -215 5 -360 13
-415 8 -47 14 -86 15 -87 3 -7 8 -33 16 -78 6 -40 5 -40 -47 -72 -72 -42 -162
-115 -287 -231 -57 -54 -116 -108 -130 -120 -50 -45 -168 -132 -179 -132 -5 0
-12 -4 -14 -8 -1 -5 -36 -25 -76 -45 -71 -35 -72 -36 -50 -50 13 -8 56 -35 96
-61 40 -25 75 -46 78 -46 3 0 24 -13 47 -28 105 -72 597 -346 597 -334 0 4 4
2 8 -4 6 -9 415 -214 426 -214 3 0 40 -16 83 -36 141 -65 176 -81 305 -136
l126 -54 -13 -30 c-15 -31 -49 -110 -70 -159 -7 -16 -27 -63 -44 -104 -18 -40
-31 -75 -29 -76 9 -8 152 -65 164 -65 8 0 14 -4 14 -10 0 -5 5 -10 11 -10 11
0 118 -39 174 -64 17 -7 68 -28 115 -46 47 -17 94 -36 105 -40 63 -26 713
-249 782 -268 21 -6 67 -19 103 -30 91 -28 351 -103 370 -107 13 -2 108 -27
135 -35 57 -17 240 -62 270 -66 17 -3 41 -9 55 -14 25 -9 56 -16 115 -25 17
-3 41 -9 55 -14 14 -5 54 -15 90 -21 36 -7 79 -16 95 -21 17 -4 50 -11 75 -14
24 -4 47 -8 51 -10 6 -4 57 -14 103 -20 15 -3 35 -6 45 -9 9 -3 36 -8 61 -11
25 -4 74 -13 110 -20 36 -8 88 -17 115 -20 59 -8 69 -10 115 -18 19 -4 49 -9
65 -11 17 -2 30 -5 30 -6 0 0 18 -3 40 -5 22 -3 56 -7 75 -10 19 -3 51 -7 70
-10 39 -5 97 -13 150 -20 19 -3 55 -7 80 -10 25 -3 59 -7 75 -9 17 -2 64 -7
105 -11 41 -3 82 -8 90 -10 8 -2 51 -7 95 -10 44 -3 96 -7 115 -10 19 -2 69
-6 110 -9 41 -4 104 -8 140 -11 80 -6 223 -13 440 -23 213 -9 911 -8 1105 1
83 4 191 9 240 12 132 6 254 14 305 20 25 3 70 7 100 10 167 13 198 16 235 20
40 5 71 8 180 20 33 3 92 11 130 16 39 6 88 12 110 15 50 5 112 13 145 19 14
2 45 7 70 10 25 3 56 8 70 10 14 3 41 7 60 10 19 3 49 8 65 12 17 3 39 7 50 8
19 1 85 12 130 21 11 3 36 7 55 10 92 14 546 109 715 149 105 25 201 48 215
51 14 3 81 20 150 38 174 47 193 51 270 60 9 1 21 5 28 10 6 4 12 5 12 2 0 -3
18 1 40 9 22 8 40 12 40 10 0 -2 24 6 53 17 28 11 62 22 75 25 12 3 22 9 22
12 0 4 6 8 13 9 6 0 57 17 112 37 55 19 109 37 120 40 11 2 43 13 70 23 28 11
52 20 55 20 3 0 19 6 35 12 17 7 38 13 48 15 19 4 141 47 272 97 44 16 85 31
90 32 12 3 63 23 90 35 11 5 54 22 95 37 41 15 81 31 88 37 6 5 12 7 12 4 0
-3 24 4 53 17 53 23 88 38 97 41 9 3 44 18 97 41 l52 23 -43 103 c-24 57 -60
140 -79 186 l-36 83 74 34 c41 19 77 35 80 35 3 0 27 9 53 21 26 11 79 34 117
51 39 17 86 38 105 48 19 10 37 18 40 18 3 0 39 16 80 35 41 18 90 40 108 48
17 8 32 17 32 21 0 5 6 8 13 8 17 0 276 132 467 237 205 113 530 311 530 322
0 3 -17 14 -37 23 -95 43 -162 99 -259 213 -54 64 -55 64 -134 165 -89 113
-175 197 -243 239 -31 19 -37 28 -32 45 10 34 15 59 20 86 2 14 9 57 16 95 8
45 13 190 14 400 2 313 6 389 24 506 10 60 10 60 -92 -10 -193 -131 -489 -311
-692 -421 -160 -87 -307 -163 -315 -165 -3 0 -23 -10 -45 -22 -33 -17 -213
-100 -417 -192 -26 -11 -52 -21 -57 -21 -6 0 -23 19 -37 43 -62 100 -83 128
-161 215 -24 26 -43 50 -43 55 0 4 -5 7 -11 7 -7 0 -24 12 -39 27 -35 36 -55
52 -115 92 -68 46 -110 92 -125 135 -11 35 -8 165 5 186 3 5 0 10 -7 10 -8 0
-9 3 -2 8 5 4 10 33 10 65 -1 33 1 60 4 62 3 2 5 79 3 172 -2 92 -3 183 -3
201 1 17 -4 41 -10 51 -7 14 -7 22 0 26 6 4 8 10 5 15 -2 4 -7 25 -10 46 -3
22 -8 50 -10 64 -3 14 -7 41 -10 60 -5 30 -16 80 -31 142 -2 10 -6 26 -8 35
-13 56 -19 73 -26 73 -4 0 -7 8 -6 18 0 9 -6 33 -13 52 -8 19 -15 37 -16 40
-1 3 -7 18 -13 33 -7 16 -12 30 -12 33 0 2 -15 36 -34 74 -19 37 -32 71 -28
74 3 3 1 6 -5 6 -6 0 -23 24 -37 54 -15 30 -33 59 -41 66 -8 7 -15 18 -15 25
0 6 -9 20 -20 30 -11 10 -20 24 -20 31 0 7 -4 14 -8 16 -4 2 -23 23 -42 48
-19 24 -43 53 -53 65 -46 51 -64 137 -45 214 5 20 11 44 13 55 2 10 9 23 14
30 5 6 10 14 10 19 2 27 68 84 146 127 44 24 83 48 87 54 4 6 8 7 8 2 0 -4 16
4 35 18 19 15 35 24 35 20 0 -4 9 1 20 11 23 21 57 42 83 51 9 3 17 11 17 16
0 5 4 7 9 4 5 -3 11 1 15 9 3 8 10 15 16 15 6 0 23 11 38 25 15 14 33 23 40
20 7 -3 10 0 7 5 -3 6 -2 10 4 10 6 0 19 10 31 22 11 12 20 19 20 15 0 -4 8 1
19 11 10 9 33 28 50 42 18 14 41 32 51 40 9 8 37 31 61 51 24 20 64 54 88 75
24 22 52 46 62 55 11 9 19 21 19 28 0 6 3 10 8 9 10 -3 147 138 200 206 12 16
22 25 22 20 0 -5 9 6 20 24 11 17 25 32 30 32 6 0 9 4 6 9 -4 5 -3 11 2 13 6
2 67 75 94 113 4 5 24 31 43 58 19 26 35 52 35 57 0 6 4 10 9 10 5 0 14 13 21
30 7 17 16 30 21 30 5 0 9 5 9 12 0 6 6 19 14 27 7 9 26 41 42 71 16 30 32 57
35 60 6 5 103 200 104 210 1 3 10 23 20 45 37 81 43 99 39 107 -3 4 -1 8 4 8
6 0 13 12 17 28 5 15 9 32 11 37 2 6 15 43 29 84 15 41 29 83 31 95 3 12 6 26
7 31 2 6 5 15 8 20 4 6 10 28 14 50 11 52 11 53 23 100 6 22 14 54 16 70 3 17
8 41 11 55 9 44 16 84 20 115 2 17 7 44 10 60 6 37 14 103 20 175 2 30 5 56 6
58 6 9 4 29 -5 41 -8 11 -8 13 2 7 9 -6 11 -1 8 17 -2 14 -2 28 1 31 3 3 7 65
8 138 2 73 4 135 5 138 1 3 1 10 0 15 -1 6 -4 75 -6 155 -4 143 -6 177 -19
315 -4 39 -8 86 -10 105 -1 19 -4 35 -5 35 -1 0 -4 18 -5 40 -2 22 -4 40 -5
40 -1 0 -3 11 -5 25 -9 78 -19 139 -31 195 -4 17 -8 41 -10 55 -1 14 -3 25 -4
25 -3 0 -10 39 -12 72 -2 18 -7 33 -12 33 -5 0 -7 3 -3 6 3 3 0 25 -7 48 -7
23 -12 49 -10 59 1 9 -2 19 -7 23 -5 3 -7 10 -4 15 4 5 2 9 -2 9 -5 0 -10 11
-11 24 -2 29 -29 133 -37 147 -4 5 -8 20 -10 32 -3 29 -57 211 -64 217 -7 6
-12 40 -14 88 -1 17 -5 32 -9 32 -7 0 -2 76 9 135 4 22 8 45 9 50 0 6 4 17 7
25 4 8 9 26 11 40 3 14 5 25 6 25 1 0 4 11 6 25 5 31 12 65 14 65 2 0 10 43
14 75 2 14 5 25 6 25 2 0 9 35 12 63 1 12 5 22 8 22 4 0 9 33 13 98 1 12 4 22
7 22 3 0 7 15 8 33 3 32 7 59 17 107 3 14 8 50 11 79 3 30 7 58 10 62 2 4 5
27 5 53 1 25 5 46 8 46 3 0 6 19 7 43 1 23 5 76 9 117 8 85 14 178 19 295 2
44 5 80 6 80 1 0 3 111 4 248 0 136 -3 247 -7 247 -5 0 -5 6 0 13 11 17 14 47
5 47 -4 0 -7 28 -8 63 -2 112 -7 212 -12 220 -4 7 -12 116 -15 195 -1 12 -4
22 -7 22 -3 0 -6 15 -6 33 -2 35 -12 142 -14 142 -3 0 -20 112 -25 160 -2 22
-4 41 -5 43 -4 4 -19 82 -25 132 -1 8 -6 23 -10 33 -4 10 -5 21 -2 24 4 3 2
14 -3 24 -9 15 -21 79 -23 117 0 6 -3 12 -7 12 -4 0 -7 6 -7 13 0 6 -3 26 -7
42 -3 17 -8 43 -11 59 -3 16 -10 37 -16 48 -5 10 -7 18 -5 18 3 0 1 11 -4 25
-11 30 -21 73 -23 98 -1 9 -4 17 -7 17 -3 0 -12 21 -19 48 -8 26 -17 52 -20
57 -3 6 -6 15 -6 20 -1 6 -8 26 -15 45 -8 19 -13 38 -12 43 1 4 -2 7 -8 7 -6
0 -9 3 -8 8 1 4 -5 21 -12 37 -7 17 -14 32 -15 35 -20 67 -195 356 -208 343
-4 -3 -7 0 -7 9 0 8 -13 29 -30 46 -16 18 -30 36 -30 41 0 5 -9 13 -20 16 -11
3 -20 13 -20 21 0 8 -3 14 -7 14 -5 0 -28 18 -53 40 -25 22 -57 45 -72 51 -16
6 -28 15 -28 20 0 5 -3 8 -7 7 -5 -1 -21 4 -38 11 -16 7 -37 14 -45 16 -8 3
-39 11 -68 19 -40 11 -89 13 -190 10 -123 -4 -182 -8 -189 -14 -2 -2 -11 -3
-20 -4 -10 -1 -22 -4 -28 -7 -5 -4 -18 -5 -27 -4 -10 2 -18 0 -18 -4 0 -4 -6
-8 -12 -8 -24 -1 -63 -12 -123 -33 -33 -12 -68 -23 -79 -25 -10 -2 -23 -8 -30
-13 -6 -5 -30 -14 -53 -22 -24 -7 -43 -17 -43 -21 0 -5 -7 -6 -15 -3 -8 4 -15
2 -15 -4 0 -6 -13 -13 -30 -17 -16 -4 -30 -11 -30 -17 0 -6 -3 -8 -6 -5 -4 3
-26 -5 -50 -19 -24 -14 -44 -23 -44 -19 0 3 -7 -1 -16 -9 -8 -9 -20 -14 -25
-11 -5 4 -9 1 -9 -4 0 -6 -7 -11 -15 -11 -8 0 -15 -5 -15 -11 0 -5 -4 -8 -8
-5 -5 3 -21 -4 -38 -15 -16 -11 -45 -27 -64 -36 -19 -9 -39 -23 -43 -30 -4 -7
-15 -13 -23 -13 -9 0 -35 -13 -59 -30 -24 -16 -48 -30 -54 -30 -6 0 -11 -4
-11 -8 0 -5 -12 -15 -27 -23 -39 -20 -127 -80 -135 -93 -4 -6 -8 -8 -8 -4 0 5
-20 -7 -44 -25 -23 -17 -53 -39 -66 -47 -12 -8 -28 -21 -36 -27 -7 -7 -15 -13
-18 -13 -6 0 -38 -25 -67 -52 -9 -9 -20 -14 -22 -11 -3 3 -12 -4 -19 -16 -7
-12 -17 -21 -21 -21 -5 0 -14 -6 -21 -12 -7 -7 -25 -22 -41 -33 -15 -11 -38
-30 -51 -42 -13 -13 -27 -23 -33 -23 -5 0 -21 -13 -34 -30 -14 -16 -29 -30
-34 -30 -4 0 -26 -17 -49 -38 -177 -161 -195 -165 -374 -89 -14 6 -27 11 -30
12 -8 3 -39 15 -105 42 -33 14 -66 25 -72 25 -7 1 -13 5 -13 10 0 5 -4 7 -8 4
-5 -3 -20 1 -35 9 -15 8 -27 12 -27 9 0 -3 -10 1 -22 8 -13 6 -32 13 -43 15
-11 2 -37 10 -58 18 -20 8 -37 11 -37 7 0 -4 -4 -2 -8 4 -4 7 -18 14 -32 15
-14 2 -28 7 -31 12 -3 4 -20 9 -37 10 -18 1 -32 5 -32 9 0 6 -16 11 -75 22
-11 2 -33 9 -49 15 -16 7 -31 9 -34 6 -3 -2 -10 0 -17 5 -6 5 -29 12 -51 16
-21 3 -43 9 -49 12 -11 7 -25 11 -65 17 -14 2 -54 11 -90 20 -36 10 -78 18
-95 20 -16 1 -30 4 -30 5 0 2 -73 16 -135 25 -14 2 -34 6 -45 9 -11 2 -45 7
-75 11 -30 4 -66 9 -80 11 -28 5 -67 10 -150 19 -114 12 -157 16 -240 20 -47
2 -85 4 -85 5 0 6 -107 6 -110 0 -4 -6 -45 -6 -52 0 -2 2 -15 3 -30 4 -16 1
-34 5 -40 9 -7 5 -13 4 -13 0 0 -5 -62 -9 -137 -10 -147 -3 -239 -7 -368 -19
-44 -4 -98 -8 -120 -10 -22 -1 -40 -3 -40 -4 0 -1 -13 -3 -30 -4 -78 -9 -142
-18 -158 -23 -11 -3 -38 -7 -60 -9 -42 -4 -82 -11 -82 -14 0 -1 -16 -3 -35 -5
-19 -2 -35 -4 -35 -5 0 -1 -9 -3 -20 -5 -11 -2 -30 -5 -41 -8 -12 -3 -39 -8
-60 -12 -45 -8 -69 -13 -69 -15 0 -1 -37 -8 -75 -14 -9 -1 -20 -5 -26 -9 -6
-3 -26 -9 -45 -12 -46 -9 -64 -13 -64 -15 0 -1 -9 -4 -20 -6 -27 -6 -49 -12
-55 -14 -3 -1 -8 -2 -12 -1 -4 0 -25 -6 -45 -14 -52 -19 -156 -49 -165 -47 -5
1 -8 -3 -8 -9 0 -5 -4 -8 -9 -5 -8 5 -62 -11 -121 -37 -30 -13 -27 -12 -72
-21 -21 -5 -38 -12 -38 -18 0 -5 -4 -6 -10 -3 -5 3 -10 1 -10 -5 0 -6 -4 -9
-9 -6 -10 6 -113 -34 -123 -49 -4 -5 -8 -7 -8 -3 0 3 -28 -5 -62 -18 -35 -14
-74 -30 -88 -35 -14 -6 -25 -9 -26 -7 0 2 -8 -3 -17 -11 -9 -7 -23 -11 -31 -8
-8 3 -16 1 -18 -4 -4 -12 -68 9 -68 22 0 5 -4 8 -8 7 -4 -2 -21 9 -37 24 -97
89 -169 150 -243 207 -25 20 -54 43 -63 51 -25 21 -37 31 -91 69 -27 19 -48
38 -48 43 0 4 -6 8 -14 8 -8 0 -21 6 -28 13 -7 6 -40 30 -73 52 -33 22 -61 43
-63 48 -2 4 -8 7 -14 7 -5 0 -16 6 -23 13 -34 30 -43 35 -49 30 -3 -4 -6 -1
-6 5 0 7 -6 12 -14 12 -8 0 -16 4 -18 9 -4 11 -91 66 -100 63 -5 -1 -8 3 -8 8
0 6 -10 15 -22 21 -53 24 -87 47 -81 53 3 3 -2 6 -11 6 -10 0 -29 9 -43 20
-14 11 -31 20 -39 20 -7 0 -14 3 -16 8 -5 11 -108 63 -108 55 0 -5 -5 -1 -10
7 -5 8 -13 15 -17 15 -4 1 -33 14 -63 30 -30 16 -61 28 -67 27 -7 -2 -13 2
-13 8 0 5 -9 10 -20 10 -11 0 -23 7 -26 15 -4 8 -11 12 -16 9 -9 -6 -29 1 -80
27 -10 5 -22 9 -27 9 -5 0 -22 5 -38 12 -34 14 -51 18 -80 21 -13 1 -23 6 -23
11 0 5 -3 6 -7 3 -3 -4 -12 -2 -20 4 -7 6 -13 9 -13 6 0 -3 -22 1 -49 9 -28 8
-53 14 -58 13 -4 -1 -10 0 -13 1 -21 8 -107 19 -160 22 -19 0 -38 5 -41 10 -3
4 -7 6 -10 4z m10880 -11703 c-2 -24 -2 -25 -6 -5 -3 13 -9 19 -15 16 -7 -4
-8 -2 -4 4 13 21 26 13 25 -15z m-12772 -5 c-3 -8 -6 -5 -6 6 -1 11 2 17 5 13
3 -3 4 -12 1 -19z m38 2 c3 -6 -1 -7 -9 -4 -18 7 -21 14 -7 14 6 0 13 -4 16
-10z m55 -36 c0 -2 -9 0 -20 6 -11 6 -20 13 -20 16 0 2 9 0 20 -6 11 -6 20
-13 20 -16z m12667 -71 c-2 -16 -4 -3 -4 27 0 30 2 43 4 28 2 -16 2 -40 0 -55z
m-107 62 c0 -2 -10 -9 -22 -15 -22 -11 -22 -10 -4 4 21 17 26 19 26 11z
m-12515 -23 c-3 -3 -11 0 -18 7 -9 10 -8 11 6 5 10 -3 15 -9 12 -12z m-128
-84 c-2 -18 -4 -4 -4 32 0 36 2 50 4 33 2 -18 2 -48 0 -65z m12533 37 c0 -2
-10 -9 -22 -15 -22 -11 -22 -10 -4 4 21 17 26 19 26 11z m-60 -40 c0 -2 -10
-9 -22 -15 -22 -11 -22 -10 -4 4 21 17 26 19 26 11z m-100 -60 c0 -2 -10 -9
-22 -15 -22 -11 -22 -10 -4 4 21 17 26 19 26 11z m-170 -100 c0 -2 -10 -9 -22
-15 -22 -11 -22 -10 -4 4 21 17 26 19 26 11z m-70 -40 c0 -2 -10 -9 -22 -15
-22 -11 -22 -10 -4 4 21 17 26 19 26 11z m-12133 -272 c-1 -49 -3 -9 -3 87 0
96 2 136 3 88 2 -49 2 -127 0 -175z m12058 227 c-3 -5 -12 -10 -18 -10 -7 0
-6 4 3 10 19 12 23 12 15 0z m-105 -54 c0 -2 -7 -7 -16 -10 -8 -3 -12 -2 -9 4
6 10 25 14 25 6z m-120 -61 c0 -2 -10 -9 -22 -15 -22 -11 -22 -10 -4 4 21 17
26 19 26 11z m-300 -150 c-14 -8 -29 -14 -35 -14 -5 0 1 6 15 14 14 8 30 14
35 14 6 0 -1 -6 -15 -14z m-75 -35 c-3 -5 -14 -10 -23 -9 -14 0 -13 2 3 9 27
11 27 11 20 0z m-75 -34 c0 -2 -7 -7 -16 -10 -8 -3 -12 -2 -9 4 6 10 25 14 25
6z m-11362 -137 c-3 -8 -7 -3 -11 10 -4 17 -3 21 5 13 5 -5 8 -16 6 -23z
m12702 -19 c-5 -22 -8 -27 -9 -13 -1 21 9 56 14 51 2 -2 0 -19 -5 -38z
m-12692 -36 c-3 -14 -5 -12 -10 9 -3 19 -2 25 4 19 6 -6 8 -18 6 -28z m12665
-94 c-3 -12 -8 -19 -11 -16 -5 6 5 36 12 36 2 0 2 -9 -1 -20z m-12636 -44 c-4
-9 -12 -16 -19 -16 -10 0 -9 3 1 9 9 6 11 16 7 27 -6 15 -4 16 5 7 6 -6 9 -19
6 -27z m12648 -6 c3 -6 -1 -7 -9 -4 -18 7 -21 14 -7 14 6 0 13 -4 16 -10z
m160 -132 l70 -73 -75 70 c-41 39 -76 71 -79 73 -2 1 0 2 5 2 5 0 41 -33 79
-72z m-13036 -21 c-2 -2 -26 -23 -54 -47 l-50 -43 47 47 c26 25 50 46 54 46 4
0 5 -1 3 -3z m-109 -90 c0 -1 -26 -27 -57 -57 l-58 -55 55 58 c50 53 60 62 60
54z m13291 -54 c13 -16 12 -17 -3 -4 -10 7 -18 15 -18 17 0 8 8 3 21 -13z m30
-40 c13 -16 12 -17 -3 -4 -10 7 -18 15 -18 17 0 8 8 3 21 -13z m99 -118 c13
-14 21 -25 18 -25 -2 0 -15 11 -28 25 -13 14 -21 25 -18 25 2 0 15 -11 28 -25z
m-13650 -1 c-8 -8 -23 -20 -34 -25 -13 -7 -9 -1 9 15 34 29 43 33 25 10z
m-100 -69 c0 -2 -10 -9 -22 -15 -22 -11 -22 -10 -4 4 21 17 26 19 26 11z
m13831 -12 c13 -16 12 -17 -3 -4 -10 7 -18 15 -18 17 0 8 8 3 21 -13z m-13919
-40 c-10 -4 -9 -9 5 -20 17 -13 16 -13 -5 -3 -22 11 -22 31 1 29 8 0 8 -2 -1
-6z m2049 -40 c-12 -20 -14 -14 -5 12 4 9 9 14 11 11 3 -2 0 -13 -6 -23z
m-1936 -43 c3 -6 -1 -7 -9 -4 -18 7 -21 14 -7 14 6 0 13 -4 16 -10z m50 -38
c-3 -3 -11 0 -18 7 -9 10 -8 11 6 5 10 -3 15 -9 12 -12z m13750 -32 c-3 -5
-12 -10 -18 -10 -7 0 -6 4 3 10 19 12 23 12 15 0z m-1787 -25 c-3 -3 -9 2 -12
12 -6 14 -5 15 5 6 7 -7 10 -15 7 -18z m-11828 -21 c0 -2 -9 0 -20 6 -11 6
-20 13 -20 16 0 2 9 0 20 -6 11 -6 20 -13 20 -16z m1731 -21 c-12 -20 -14 -14
-5 12 4 9 9 14 11 11 3 -2 0 -13 -6 -23z m-1696 -1 c-3 -3 -11 0 -18 7 -9 10
-8 11 6 5 10 -3 15 -9 12 -12z m13485 14 c0 -2 -7 -7 -16 -10 -8 -3 -12 -2 -9
4 6 10 25 14 25 6z m-1666 -22 c3 -8 2 -12 -4 -9 -6 3 -10 10 -10 16 0 14 7
11 14 -7z m-11734 -40 c0 -2 -9 0 -20 6 -11 6 -20 13 -20 16 0 2 9 0 20 -6 11
-6 20 -13 20 -16z m13325 16 c-3 -5 -12 -10 -18 -10 -7 0 -6 4 3 10 19 12 23
12 15 0z m-11794 -23 c-10 -9 -11 -8 -5 6 3 10 9 15 12 12 3 -3 0 -11 -7 -18z
m50 -14 c-12 -20 -14 -14 -5 12 4 9 9 14 11 11 3 -2 0 -13 -6 -23z m-1546 7
c3 -6 -1 -7 -9 -4 -18 7 -21 14 -7 14 6 0 13 -4 16 -10z m61 -36 c18 -14 18
-14 -6 -3 -31 14 -36 19 -24 19 6 0 19 -7 30 -16z m11684 -19 c0 -5 -5 -3 -10
5 -5 8 -10 20 -10 25 0 6 5 3 10 -5 5 -8 10 -19 10 -25z m-50 -10 c0 -5 -5 -3
-10 5 -5 8 -10 20 -10 25 0 6 5 3 10 -5 5 -8 10 -19 10 -25z m-11570 -5 c8 -5
11 -10 5 -10 -5 0 -17 5 -25 10 -8 5 -10 10 -5 10 6 0 17 -5 25 -10z m12940
-24 c0 -2 -7 -7 -16 -10 -8 -3 -12 -2 -9 4 6 10 25 14 25 6z m-1292 -37 c-3
-8 -7 -3 -11 10 -4 17 -3 21 5 13 5 -5 8 -16 6 -23z m-45 -9 c3 -11 1 -18 -4
-14 -5 3 -9 12 -9 20 0 20 7 17 13 -6z m-10302 -17 c-12 -20 -14 -14 -5 12 4
9 9 14 11 11 3 -2 0 -13 -6 -23z m11554 17 c-3 -5 -12 -10 -18 -10 -7 0 -6 4
3 10 19 12 23 12 15 0z m-12710 -10 c3 -6 -1 -7 -9 -4 -18 7 -21 14 -7 14 6 0
13 -4 16 -10z m1206 -13 c-10 -9 -11 -8 -5 6 3 10 9 15 12 12 3 -3 0 -11 -7
-18z m11459 -1 c0 -2 -7 -7 -16 -10 -8 -3 -12 -2 -9 4 6 10 25 14 25 6z
m-11539 -63 c-12 -20 -14 -14 -5 12 4 9 9 14 11 11 3 -2 0 -13 -6 -23z m51
-15 c-8 -8 -9 -4 -5 13 4 13 8 18 11 10 2 -7 -1 -18 -6 -23z m11343 2 c-3 -5
-12 -10 -18 -10 -7 0 -6 4 3 10 19 12 23 12 15 0z m-995 -65 c0 -5 -5 -3 -10
5 -5 8 -10 20 -10 25 0 6 5 3 10 -5 5 -8 10 -19 10 -25z m-10429 2 c-10 -9
-11 -8 -5 6 3 10 9 15 12 12 3 -3 0 -11 -7 -18z m11299 3 c-8 -5 -19 -10 -25
-10 -5 0 -3 5 5 10 8 5 20 10 25 10 6 0 3 -5 -5 -10z m-12075 -18 c-3 -3 -11
0 -18 7 -9 10 -8 11 6 5 10 -3 15 -9 12 -12z m11285 -47 c0 -5 -5 -3 -10 5 -5
8 -10 20 -10 25 0 6 5 3 10 -5 5 -8 10 -19 10 -25z m710 25 c-8 -5 -19 -10
-25 -10 -5 0 -3 5 5 10 8 5 20 10 25 10 6 0 3 -5 -5 -10z m-11865 -38 c-3 -3
-11 0 -18 7 -9 10 -8 11 6 5 10 -3 15 -9 12 -12z m11115 -17 c0 -5 -5 -3 -10
5 -5 8 -10 20 -10 25 0 6 5 3 10 -5 5 -8 10 -19 10 -25z m697 29 c-3 -3 -12
-4 -19 -1 -8 3 -5 6 6 6 11 1 17 -2 13 -5z m-11206 -31 c-12 -20 -14 -14 -5
12 4 9 9 14 11 11 3 -2 0 -13 -6 -23z m45 -20 c-8 -15 -15 -25 -16 -21 0 12
23 58 27 54 3 -2 -2 -17 -11 -33z m-501 -23 c3 -6 -1 -7 -9 -4 -18 7 -21 14
-7 14 6 0 13 -4 16 -10z m426 -23 c-10 -9 -11 -8 -5 6 3 10 9 15 12 12 3 -3 0
-11 -7 -18z m10567 -2 c-3 -3 -9 2 -12 12 -6 14 -5 15 5 6 7 -7 10 -15 7 -18z
m-10517 -12 c-12 -20 -14 -14 -5 12 4 9 9 14 11 11 3 -2 0 -13 -6 -23z m-406
7 c3 -6 -1 -7 -9 -4 -18 7 -21 14 -7 14 6 0 13 -4 16 -10z m70 -38 c-3 -3 -11
0 -18 7 -9 10 -8 11 6 5 10 -3 15 -9 12 -12z m11215 8 c-8 -5 -19 -10 -25 -10
-5 0 -3 5 5 10 8 5 20 10 25 10 6 0 3 -5 -5 -10z m-282 -31 c-3 -8 -7 -3 -11
10 -4 17 -3 21 5 13 5 -5 8 -16 6 -23z m-50 -10 c-3 -8 -7 -3 -11 10 -4 17 -3
21 5 13 5 -5 8 -16 6 -23z m-10801 5 c-3 -3 -12 -4 -19 -1 -8 3 -5 6 6 6 11 1
17 -2 13 -5z m213 -34 c-6 -11 -13 -20 -16 -20 -2 0 0 9 6 20 6 11 13 20 16
20 2 0 0 -9 -6 -20z m-129 -7 c13 -17 13 -17 -6 -3 -11 8 -22 16 -24 17 -2 2
0 3 6 3 6 0 17 -8 24 -17z m10815 -21 c-10 -2 -22 0 -28 6 -6 6 0 7 19 4 21
-5 23 -7 9 -10z m-56 -37 c0 -5 -5 -3 -10 5 -5 8 -10 20 -10 25 0 6 5 3 10 -5
5 -8 10 -19 10 -25z m-10657 0 c-3 -9 -8 -14 -10 -11 -3 3 -2 9 2 15 9 16 15
13 8 -4z m10717 -140 c0 -5 -5 -3 -10 5 -5 8 -10 20 -10 25 0 6 5 3 10 -5 5
-8 10 -19 10 -25z m-10789 -32 c-12 -20 -14 -14 -5 12 4 9 9 14 11 11 3 -2 0
-13 -6 -23z m-30 -70 c-12 -20 -14 -14 -5 12 4 9 9 14 11 11 3 -2 0 -13 -6
-23z m10893 -69 c3 -8 2 -12 -4 -9 -6 3 -10 10 -10 16 0 14 7 11 14 -7z m6
-64 c-8 -5 -17 -7 -19 -4 -3 3 1 9 9 14 8 5 17 7 19 4 3 -3 -1 -9 -9 -14z
m-10905 0 c3 -6 -1 -7 -9 -4 -18 7 -21 14 -7 14 6 0 13 -4 16 -10z m155 -60
c8 -5 11 -10 5 -10 -5 0 -17 5 -25 10 -8 5 -10 10 -5 10 6 0 17 -5 25 -10z
m10609 6 c-2 -2 -15 -9 -29 -15 -24 -11 -24 -11 -6 3 16 13 49 24 35 12z
m-184 -76 c-27 -12 -43 -12 -25 0 8 5 22 9 30 9 10 0 8 -3 -5 -9z m-10175 -30
c8 -5 11 -10 5 -10 -5 0 -17 5 -25 10 -8 5 -10 10 -5 10 6 0 17 -5 25 -10z
m110 -40 c18 -12 2 -12 -25 0 -13 6 -15 9 -5 9 8 0 22 -4 30 -9z m9880 0 c-8
-5 -19 -10 -25 -10 -5 0 -3 5 5 10 8 5 20 10 25 10 6 0 3 -5 -5 -10z m-9800
-30 c8 -5 11 -10 5 -10 -5 0 -17 5 -25 10 -8 5 -10 10 -5 10 6 0 17 -5 25 -10z
m9730 6 c0 -2 -13 -9 -30 -15 -35 -12 -41 -5 -7 9 25 10 37 12 37 6z m-9540
-76 c8 -5 11 -10 5 -10 -5 0 -17 5 -25 10 -8 5 -10 10 -5 10 6 0 17 -5 25 -10z
m77 -26 c-3 -3 -12 -4 -19 -1 -8 3 -5 6 6 6 11 1 17 -2 13 -5z m9173 -4 c-8
-5 -19 -10 -25 -10 -5 0 -3 5 5 10 8 5 20 10 25 10 6 0 3 -5 -5 -10z m-8950
-70 c18 -12 2 -12 -25 0 -13 6 -15 9 -5 9 8 0 22 -4 30 -9z m8750 0 c-8 -5
-22 -10 -30 -10 -13 0 -13 1 0 10 8 5 22 10 30 10 13 0 13 -1 0 -10z m-8660
-30 c18 -12 2 -12 -25 0 -13 6 -15 9 -5 9 8 0 22 -4 30 -9z m834 -239 c4 -5
-3 -7 -14 -4 -23 6 -26 13 -6 13 8 0 17 -4 20 -9z m6906 5 c0 -2 -9 -6 -20 -9
-11 -3 -18 -1 -14 4 5 9 34 13 34 5z m-6775 -36 c13 -5 14 -9 5 -9 -8 0 -24 4
-35 9 -13 5 -14 9 -5 9 8 0 24 -4 35 -9z m6640 0 c-27 -12 -43 -12 -25 0 8 5
22 9 30 9 10 0 8 -3 -5 -9z m-6498 -36 c-3 -3 -12 -4 -19 -1 -8 3 -5 6 6 6 11
1 17 -2 13 -5z m6346 -1 c-7 -2 -19 -2 -25 0 -7 3 -2 5 12 5 14 0 19 -2 13 -5z
m-6206 -29 c-3 -3 -12 -4 -19 -1 -8 3 -5 6 6 6 11 1 17 -2 13 -5z m6073 2 c0
-2 -11 -6 -25 -8 -13 -3 -22 -1 -19 3 5 9 44 13 44 5z m-6033 -12 c-3 -3 -12
-4 -19 -1 -8 3 -5 6 6 6 11 1 17 -2 13 -5z m123 -24 c11 -8 7 -9 -15 -4 -37 8
-45 14 -19 14 10 0 26 -5 34 -10z m5770 6 c0 -2 -11 -6 -25 -8 -13 -3 -22 -1
-19 3 5 9 44 13 44 5z m-5580 -46 c18 -12 2 -12 -25 0 -13 6 -15 9 -5 9 8 0
22 -4 30 -9z m5390 6 c0 -2 -11 -6 -25 -8 -13 -3 -22 -1 -19 3 5 9 44 13 44 5z
m-5247 -33 c-7 -2 -19 -2 -25 0 -7 3 -2 5 12 5 14 0 19 -2 13 -5z m5070 0 c-7
-2 -19 -2 -25 0 -7 3 -2 5 12 5 14 0 19 -2 13 -5z m-4858 -33 c27 -7 27 -8 5
-8 -14 0 -38 4 -55 8 -27 7 -27 8 -5 8 14 0 39 -4 55 -8z m4694 6 c-2 -2 -20
-6 -39 -10 -25 -4 -31 -3 -20 4 14 9 69 15 59 6z m-4496 -43 c-7 -2 -19 -2
-25 0 -7 3 -2 5 12 5 14 0 19 -2 13 -5z m4250 0 c-7 -2 -21 -2 -30 0 -10 3 -4
5 12 5 17 0 24 -2 18 -5z m-3748 -63 c13 -6 15 -9 5 -9 -8 0 -22 4 -30 9 -18
12 -2 12 25 0z m3292 4 c-3 -3 -12 -4 -19 -1 -8 3 -5 6 6 6 11 1 17 -2 13 -5z
m-57 -8 c0 -2 -18 -6 -39 -8 -22 -2 -37 0 -35 4 5 8 74 11 74 4z m-2887 -33
c-13 -2 -33 -2 -45 0 -13 2 -3 4 22 4 25 0 35 -2 23 -4z m2582 2 c-23 -8 -83
-10 -79 -3 3 4 24 8 47 7 23 0 38 -2 32 -4z m-2498 -11 c-3 -3 -12 -4 -19 -1
-8 3 -5 6 6 6 11 1 17 -2 13 -5z m38 -4 c3 -6 -1 -7 -9 -4 -18 7 -21 14 -7 14
6 0 13 -4 16 -10z m2332 4 c-3 -3 -12 -4 -19 -1 -8 3 -5 6 6 6 11 1 17 -2 13
-5z m-1999 -22 c7 -5 -16 -7 -50 -4 -85 5 -96 10 -23 11 33 0 66 -3 73 -7z
m1747 3 c-22 -8 -134 -11 -123 -3 7 4 40 7 73 7 33 0 56 -2 50 -4z m-1638 -11
c-3 -3 -12 -4 -19 -1 -8 3 -5 6 6 6 11 1 17 -2 13 -5z"/>
</g>
</svg>
